<?xml version="1.0" encoding="utf-8"?>
<!-- Generator: Adobe Illustrator 16.0.3, SVG Export Plug-In . SVG Version: 6.00 Build 0)  -->
<!DOCTYPE svg PUBLIC "-//W3C//DTD SVG 1.1//EN" "http://www.w3.org/Graphics/SVG/1.1/DTD/svg11.dtd">
<svg version="1.1" id="Layer_1" xmlns="http://www.w3.org/2000/svg" xmlns:xlink="http://www.w3.org/1999/xlink" x="0px" y="0px"
	 width="64px" height="64px" viewBox="0 0 64 64" enable-background="new 0 0 64 64" xml:space="preserve">
<path fill="#F6A93D" d="M19.013,43.662l2.782-0.748c-0.004-0.023-0.004-0.048-0.009-0.072L8.775,3.72
	C8.597,2.938,7.821,2.448,7.038,2.625C6.256,2.803,5.767,3.58,5.944,4.361l13.012,39.123C18.971,43.546,18.991,43.604,19.013,43.662
	z"/>
<path fill="#F6A93D" d="M15.073,46.41c0.027-0.026,0.058-0.049,0.092-0.069c0.034-0.02,0.07-0.036,0.106-0.046l13.208-3.628
	c0.16-0.043,0.33-0.063,0.505-0.05c0.175,0.014,0.34,0.056,0.493,0.123l3.229,1.419c0.614,0.271,1.031,0.895,1.003,1.604
	c-0.028,0.711-0.494,1.301-1.127,1.521l-21.787,7.572c-0.184,0.062-0.392,0.054-0.578-0.044c-0.186-0.096-0.313-0.261-0.365-0.447
	l-0.447-1.584c-0.053-0.188-0.058-0.393-0.004-0.595c0.054-0.202,0.16-0.377,0.3-0.515L15.073,46.41z"/>
<path fill="#F6A93D" d="M11.569,56.359l22.318-7.493c0,0,0.569-0.424,1.541,0.383c0.558,0.434,2.409,0.176,3.112-0.238
	c0.703-0.413,5.263-0.396,6.734,0.149c1.472,0.544,3.426,0.362,3.93,0.362s1.532,0.262,2.419,0.906s2.52,1.491,3.547,1.491
	c1.028,0,1.955-0.583,2.257-0.905c0.302-0.324,0.5-0.081,0.5,0.584s-0.54,2.772-3.422,3.512c0.282,0.096,1.774,0.34,2.882-0.739
	c0.282-0.374,0.54,0.17,0.54,0.452c0,0.281-0.136,3.566-5.135,3.566c-4.998,0-4.635-0.321-7.355-0.321
	c-1.452,0-2.742,0.504-1.008,1.148c1.35,0.483,2.357,0.181,2.62,0c0.263-0.181,0.242,0.2-0.101,0.686
	c-0.342,0.483-2.665,2.782-6.853,2.684c-1.801-0.042-6.006-0.709-7.174-0.688c-1.169,0.021-4.575,0.688-8.364,0.688
	c-3.79,0-6.686-0.175-10.435-2.291c-2.93-2.267-3.469-2.426-3.298-3.122C10.917,56.792,11.569,56.359,11.569,56.359z"/>
</svg>
