<?xml version="1.0" encoding="utf-8"?>
<!-- Generator: Adobe Illustrator 16.0.3, SVG Export Plug-In . SVG Version: 6.00 Build 0)  -->
<!DOCTYPE svg PUBLIC "-//W3C//DTD SVG 1.1//EN" "http://www.w3.org/Graphics/SVG/1.1/DTD/svg11.dtd">
<svg version="1.1" id="Layer_1" xmlns="http://www.w3.org/2000/svg" xmlns:xlink="http://www.w3.org/1999/xlink" x="0px" y="0px"
	 width="64px" height="64px" viewBox="0 0 64 64" enable-background="new 0 0 64 64" xml:space="preserve">
<g>
	<g>
		<g>
			<g>
				<path fill="#F6A93D" d="M31.333,45.229c0.001-0.048,0.007-0.094,0.007-0.143V6.283c0-2.845-2.328-5.174-5.174-5.174
					c-2.845,0-5.174,2.329-5.174,5.174v38.803c0,0.049,0.006,0.095,0.007,0.143c-2.716,1.717-4.525,4.738-4.525,8.189
					c0,5.353,4.339,9.691,9.691,9.691s9.691-4.338,9.691-9.691C35.857,49.968,34.048,46.947,31.333,45.229z M29.723,44.411
					c-0.692-0.274-1.424-0.466-2.183-0.574V20.491c0-0.759-0.615-1.374-1.374-1.374s-1.374,0.615-1.374,1.374v23.346
					c-0.759,0.108-1.491,0.3-2.183,0.574V6.283c0-1.961,1.595-3.557,3.557-3.557s3.557,1.596,3.557,3.557V44.411z"/>
			</g>
		</g>
		<g>
			<path fill="#F6A93D" d="M35.701,8.396h10.991c0.46,0,0.834-0.373,0.834-0.834c0-0.46-0.374-0.834-0.834-0.834H35.701
				c-0.46,0-0.834,0.374-0.834,0.834C34.866,8.022,35.24,8.396,35.701,8.396z"/>
		</g>
		<g>
			<path fill="#F6A93D" d="M35.702,13.676c-0.461,0-0.835,0.374-0.835,0.834c0,0.461,0.374,0.834,0.835,0.834h4.88
				c0.46,0,0.834-0.374,0.834-0.834c0-0.46-0.374-0.834-0.834-0.834H35.702z"/>
		</g>
		<g>
			<path fill="#F6A93D" d="M46.692,20.624H35.701c-0.46,0-0.834,0.374-0.834,0.834c0,0.461,0.374,0.834,0.834,0.834h10.991
				c0.46,0,0.834-0.374,0.834-0.834C47.526,20.998,47.152,20.624,46.692,20.624z"/>
		</g>
		<g>
			<path fill="#F6A93D" d="M35.702,29.241h4.88c0.46,0,0.834-0.374,0.834-0.835c0-0.46-0.374-0.834-0.834-0.834h-4.88
				c-0.461,0-0.835,0.374-0.835,0.834C34.867,28.867,35.24,29.241,35.702,29.241z"/>
		</g>
		<g>
			<path fill="#F6A93D" d="M40.582,41.469h-4.88c-0.461,0-0.835,0.374-0.835,0.834c0,0.461,0.374,0.834,0.835,0.834h4.88
				c0.46,0,0.834-0.374,0.834-0.834C41.416,41.843,41.042,41.469,40.582,41.469z"/>
		</g>
		<g>
			<path fill="#F6A93D" d="M46.692,34.521H35.701c-0.46,0-0.834,0.374-0.834,0.834c0,0.461,0.374,0.835,0.834,0.835h10.991
				c0.46,0,0.834-0.374,0.834-0.835C47.526,34.895,47.152,34.521,46.692,34.521z"/>
		</g>
	</g>
</g>
</svg>
