<?xml version="1.0" encoding="utf-8"?>
<!-- Generator: Adobe Illustrator 16.0.3, SVG Export Plug-In . SVG Version: 6.00 Build 0)  -->
<!DOCTYPE svg PUBLIC "-//W3C//DTD SVG 1.1//EN" "http://www.w3.org/Graphics/SVG/1.1/DTD/svg11.dtd">
<svg version="1.1" id="Layer_1" xmlns="http://www.w3.org/2000/svg" xmlns:xlink="http://www.w3.org/1999/xlink" x="0px" y="0px"
	 width="48px" height="48px" viewBox="0 0 48 48" enable-background="new 0 0 48 48" xml:space="preserve">
<g>
	<path fill="#231F20" d="M42.408,10.262c-0.58-0.58-1.266-0.87-2.059-0.87h-2.93V7.196c0-1.007-0.357-1.869-1.074-2.586
		c-0.716-0.717-1.579-1.075-2.586-1.075h-1.465c-1.006,0-1.867,0.358-2.585,1.075c-0.717,0.717-1.076,1.579-1.076,2.586v2.196
		h-8.785V7.196c0-1.007-0.357-1.869-1.074-2.586c-0.718-0.717-1.579-1.075-2.586-1.075h-1.465c-1.007,0-1.869,0.358-2.586,1.075
		c-0.717,0.717-1.074,1.579-1.074,2.586v2.196h-2.93c-0.792,0-1.479,0.29-2.059,0.87c-0.58,0.58-0.869,1.265-0.869,2.059v29.286
		c0,0.793,0.289,1.479,0.869,2.06c0.579,0.579,1.267,0.868,2.059,0.868H40.35c0.793,0,1.479-0.289,2.059-0.868
		c0.58-0.581,0.87-1.267,0.87-2.06V12.321C43.278,11.527,42.988,10.842,42.408,10.262z M31.563,7.196
		c0-0.214,0.069-0.39,0.206-0.526c0.138-0.138,0.313-0.206,0.525-0.206h1.465c0.213,0,0.39,0.068,0.526,0.206
		c0.138,0.137,0.206,0.312,0.206,0.526v6.589c0,0.213-0.068,0.389-0.206,0.526c-0.137,0.137-0.313,0.206-0.526,0.206h-1.465
		c-0.213,0-0.388-0.069-0.525-0.206c-0.137-0.137-0.206-0.313-0.206-0.526V7.196z M13.992,7.196c0-0.214,0.067-0.39,0.205-0.526
		c0.138-0.138,0.314-0.206,0.526-0.206h1.465c0.213,0,0.389,0.068,0.526,0.206c0.137,0.137,0.205,0.312,0.205,0.526v6.589
		c0,0.213-0.068,0.389-0.205,0.526c-0.138,0.137-0.313,0.206-0.526,0.206h-1.465c-0.212,0-0.389-0.069-0.526-0.206
		s-0.205-0.313-0.205-0.526V7.196z M40.35,41.607H8.134V18.178H40.35V41.607z"/>
	<g>
		<path fill="#231F20" d="M23.015,24.746c0,0.55-0.45,1-1,1h-2.869c-0.55,0-1-0.45-1-1v-2.869c0-0.55,0.45-1,1-1h2.869
			c0.55,0,1,0.45,1,1V24.746z"/>
	</g>
	<g>
		<path fill="#231F20" d="M30.332,24.746c0,0.55-0.45,1-1,1h-2.868c-0.55,0-1-0.45-1-1v-2.869c0-0.55,0.45-1,1-1h2.868
			c0.55,0,1,0.45,1,1V24.746z"/>
	</g>
	<g>
		<path fill="#231F20" d="M37.65,24.746c0,0.55-0.45,1-1,1h-2.867c-0.55,0-1-0.45-1-1v-2.869c0-0.55,0.45-1,1-1h2.867
			c0.55,0,1,0.45,1,1V24.746z"/>
	</g>
	<g>
		<path fill="#231F20" d="M15.696,31.331c0,0.55-0.45,1-1,1h-2.868c-0.55,0-1-0.45-1-1v-2.869c0-0.55,0.45-1,1-1h2.868
			c0.55,0,1,0.45,1,1V31.331z"/>
	</g>
	<g>
		<path fill="#231F20" d="M23.015,31.331c0,0.55-0.45,1-1,1h-2.869c-0.55,0-1-0.45-1-1v-2.869c0-0.55,0.45-1,1-1h2.869
			c0.55,0,1,0.45,1,1V31.331z"/>
	</g>
	<g>
		<path fill="#231F20" d="M30.332,31.331c0,0.55-0.45,1-1,1h-2.868c-0.55,0-1-0.45-1-1v-2.869c0-0.55,0.45-1,1-1h2.868
			c0.55,0,1,0.45,1,1V31.331z"/>
	</g>
	<g>
		<path fill="#231F20" d="M37.65,31.331c0,0.55-0.45,1-1,1h-2.868c-0.55,0-1-0.45-1-1v-2.869c0-0.55,0.45-1,1-1h2.868
			c0.55,0,1,0.45,1,1V31.331z"/>
	</g>
	<g>
		<path fill="#231F20" d="M15.696,37.917c0,0.55-0.45,1-1,1h-2.868c-0.55,0-1-0.45-1-1v-2.869c0-0.55,0.45-1,1-1h2.868
			c0.55,0,1,0.45,1,1V37.917z"/>
	</g>
	<g>
		<path fill="#231F20" d="M23.015,37.917c0,0.55-0.45,1-1,1h-2.869c-0.55,0-1-0.45-1-1v-2.869c0-0.55,0.45-1,1-1h2.869
			c0.55,0,1,0.45,1,1V37.917z"/>
	</g>
	<g>
		<path fill="#231F20" d="M30.332,37.917c0,0.55-0.45,1-1,1h-2.868c-0.55,0-1-0.45-1-1v-2.869c0-0.55,0.45-1,1-1h2.868
			c0.55,0,1,0.45,1,1V37.917z"/>
	</g>
	<g>
		<path fill="#231F20" d="M37.65,37.917c0,0.55-0.45,1-1,1h-2.867c-0.55,0-1-0.45-1-1v-2.869c0-0.55,0.45-1,1-1h2.867
			c0.55,0,1,0.45,1,1V37.917z"/>
	</g>
</g>
</svg>
