<?xml version="1.0" encoding="utf-8"?>
<!-- Generator: Adobe Illustrator 16.0.3, SVG Export Plug-In . SVG Version: 6.00 Build 0)  -->
<!DOCTYPE svg PUBLIC "-//W3C//DTD SVG 1.1//EN" "http://www.w3.org/Graphics/SVG/1.1/DTD/svg11.dtd">
<svg version="1.1" id="Layer_1" xmlns="http://www.w3.org/2000/svg" xmlns:xlink="http://www.w3.org/1999/xlink" x="0px" y="0px"
	 width="286px" height="66px" viewBox="0 0 286 66" enable-background="new 0 0 286 66" xml:space="preserve">
<g>
	<polygon fill="#F6AA39" points="162.379,7.436 131.855,63 101.33,7.436 	"/>
	<g>
		<g>
			<path fill="#373A5D" d="M64.99,9.298h-0.898h-0.896H52.422v10.773V51.48v10.772h10.773h0.896h0.898
				c5.925,0,10.773-4.849,10.773-10.772V20.072C75.764,14.147,70.915,9.298,64.99,9.298z M67.685,51.031
				c0,1.727-1.413,3.143-3.144,3.143h-0.449h-0.449h-3.141v-3.143V20.521v-3.142h3.141h0.449h0.449c1.73,0,3.144,1.414,3.144,3.142
				V51.031z"/>
			<path fill="#373A5D" d="M42.416,9.298v41.733c0,1.727-1.414,3.143-3.143,3.143s-3.143-1.416-3.143-3.143V9.298h-8.08v41.315
				v0.867c0,5.924,4.848,10.772,10.774,10.772h0.897c5.926,0,10.773-4.849,10.773-10.772v-0.867V9.298H42.416z"/>
			<path fill="#373A5D" d="M91.791,9.298v41.733c0,1.727-1.414,3.143-3.142,3.143s-3.144-1.416-3.144-3.143V9.298h-8.078v41.315
				v0.867c0,5.924,4.848,10.772,10.771,10.772h0.898c5.926,0,10.773-4.849,10.773-10.772v-0.867V9.298H91.791z"/>
			<path fill="#373A5D" d="M270.88,17.364h-16.16c-1.234,0-2.245-1.01-2.245-2.245c0-1.235,1.011-2.244,2.245-2.244h12.554
				c2.715,0,4.938-2.222,4.938-4.938c0-2.715-2.223-4.937-4.938-4.937h-6.286h-0.001h-0.002h-6.265
				c-6.667,0-12.12,5.453-12.12,12.12s5.453,12.121,12.12,12.121h16.16c1.234,0,2.243,1.01,2.243,2.245
				c0,1.234-1.009,2.244-2.243,2.244h-49.813v9.875h49.813c6.665,0,12.12-5.453,12.12-12.119
				C283,22.819,277.545,17.364,270.88,17.364z"/>
			<path fill="#373A5D" d="M240.203,25.643l-0.006,0.007c-2.229-4.361-6.755-7.354-11.99-7.354c-7.436,0-13.467,6.029-13.467,13.467
				c0,4.411,2.131,8.315,5.411,10.772h9.769c-2.457,3.25-6.346,5.359-10.734,5.359c-0.574,0-1.137-0.047-1.69-0.117
				c-2.939-0.191-5.5,1.99-5.774,4.924c-0.275,2.934,1.83,5.555,4.755,5.916c0.657,0.051,1.319,0.083,1.992,0.083
				c13.388,0,24.241-10.259,24.241-22.914C242.709,32.144,241.803,28.702,240.203,25.643z M223.848,31.729
				c0.201-2.044,1.904-3.648,4.002-3.648c2.094,0,3.799,1.604,3.998,3.648H223.848z"/>
			<path fill="#373A5D" d="M212.85,33.018c0-7.189-5.828-13.018-13.018-13.018c-4.611,0-8.654,2.406-10.969,6.024l0.01,0.006
				c-1.195,1.642-1.371,3.815-0.455,5.628c0.914,1.813,2.77,2.959,4.801,2.971c2.031,0.01,3.963-1.468,4.832-2.92l0.01,0.004
				c0.521-1.016,1.567-1.719,2.789-1.719c1.734,0,3.143,1.406,3.143,3.142c0,0.175-0.025,0.343-0.054,0.512l0.007,0l0.027,0.035
				c-0.247,1.517-2.121,6.291-16.01,16.449l-0.133,0.102c-2.482,2.158-2.654,7.23-0.215,8.66c1.879,1.1,4.951,0.838,7.049-1.059
				l-0.026-0.029c0.015,0.004,0.028,0.008,0.044,0.01c7.996-6.002,17.014-13.721,18.027-22.881c0-0.001-0.004-0.001-0.004-0.004
				C212.798,34.307,212.85,33.668,212.85,33.018z"/>
			<path fill="#373A5D" d="M184.56,26.387l-0.003,0.001c-2.256-4.275-6.738-7.194-11.911-7.194c-7.437,0-13.466,6.028-13.466,13.466
				c0,4.413,2.131,8.317,5.409,10.774h9.231c-2.459,3.248-6.346,5.357-10.734,5.357c-0.516,0-1.02-0.035-1.52-0.09
				c-2.018-0.369-4.068,0.424-5.307,2.055c-1.24,1.631-1.459,3.818-0.568,5.664c0.894,1.842,2.748,3.027,4.795,3.064
				c0.796,0.074,1.604,0.115,2.42,0.115c13.387,0,24.24-10.26,24.24-22.916C187.146,32.979,186.209,29.484,184.56,26.387z
				 M168.617,33.544c0.055-2.182,1.833-3.937,4.028-3.937c2.196,0,3.974,1.755,4.03,3.937H168.617z"/>
			<polygon fill="#373A5D" points="29.564,9.298 20.649,9.298 11.006,29.977 11.006,9.298 2.926,9.298 2.926,62.253 11.006,62.253 
				11.006,49.096 13.803,43.101 20.605,62.253 29.182,62.253 18.67,32.66 			"/>
		</g>
	</g>
</g>
</svg>
