<?xml version="1.0" encoding="utf-8"?>
<!-- Generator: Adobe Illustrator 16.0.3, SVG Export Plug-In . SVG Version: 6.00 Build 0)  -->
<!DOCTYPE svg PUBLIC "-//W3C//DTD SVG 1.1//EN" "http://www.w3.org/Graphics/SVG/1.1/DTD/svg11.dtd">
<svg version="1.1" id="Layer_1" xmlns="http://www.w3.org/2000/svg" xmlns:xlink="http://www.w3.org/1999/xlink" x="0px" y="0px"
	 width="330px" height="330px" viewBox="0 0 330 330" enable-background="new 0 0 330 330" xml:space="preserve">
<g>
	<g>
		<path fill="#929190" d="M16.399,292.318l2.258-1.355c1.59,2.928,3.427,4.391,5.51,4.391c0.892,0,1.729-0.207,2.512-0.623
			c0.783-0.416,1.379-0.973,1.789-1.672c0.409-0.697,0.614-1.438,0.614-2.222c0-0.892-0.301-1.765-0.903-2.62
			c-0.831-1.181-2.349-2.602-4.553-4.264c-2.216-1.674-3.595-2.885-4.137-3.633c-0.939-1.252-1.409-2.606-1.409-4.063
			c0-1.155,0.277-2.21,0.831-3.161c0.554-0.951,1.334-1.701,2.34-2.25c1.005-0.548,2.099-0.822,3.279-0.822
			c1.253,0,2.424,0.312,3.514,0.932c1.09,0.62,2.243,1.762,3.46,3.424l-2.168,1.645c-1-1.324-1.852-2.197-2.557-2.619
			c-0.705-0.422-1.473-0.633-2.304-0.633c-1.072,0-1.948,0.324-2.628,0.976c-0.681,0.649-1.021,1.452-1.021,2.403
			c0,0.578,0.121,1.138,0.361,1.68c0.24,0.542,0.681,1.133,1.319,1.771c0.349,0.338,1.494,1.223,3.433,2.656
			c2.301,1.697,3.878,3.209,4.734,4.534c0.855,1.324,1.283,2.655,1.283,3.992c0,1.928-0.732,3.603-2.195,5.022
			c-1.463,1.422-3.243,2.131-5.339,2.131c-1.614,0-3.077-0.43-4.39-1.291C18.719,295.784,17.507,294.342,16.399,292.318z"/>
		<path fill="#929190" d="M36.364,297.27l3.805-26.576h0.432L51.405,292.5l10.7-21.807h0.426l3.825,26.576h-2.604l-2.626-19.008
			l-9.397,19.008h-0.679l-9.509-19.151L38.93,297.27H36.364z"/>
		<path fill="#929190" d="M82.435,270.691l12.394,26.576h-2.869l-4.18-8.744H76.331l-4.14,8.744h-2.963l12.557-26.576H82.435z
			 M82.099,276.339l-4.554,9.619h9.086L82.099,276.339z"/>
		<path fill="#929190" d="M99.091,270.691h5.293c2.951,0,4.951,0.121,5.999,0.361c1.578,0.362,2.86,1.137,3.848,2.324
			c0.987,1.188,1.481,2.65,1.481,4.389c0,1.446-0.34,2.719-1.021,3.815c-0.68,1.099-1.653,1.927-2.917,2.487
			c-1.264,0.56-3.011,0.848-5.239,0.858l9.557,12.341h-3.285l-9.558-12.341h-1.502v12.341h-2.656V270.691z M101.748,273.294v9.033
			l4.579,0.036c1.773,0,3.085-0.168,3.936-0.506s1.514-0.877,1.991-1.617s0.715-1.568,0.715-2.484c0-0.891-0.241-1.701-0.724-2.43
			c-0.482-0.729-1.116-1.249-1.9-1.563c-0.784-0.314-2.087-0.471-3.909-0.471L101.748,273.294L101.748,273.294z"/>
		<path fill="#929190" d="M118.767,273.294v-2.603h14.562v2.603h-5.926v23.976h-2.71v-23.976H118.767z"/>
	</g>
	<g>
		<path fill="#438AC9" d="M138.334,265.163h6.475c3.546,0,6.071,0.315,7.576,0.948c1.504,0.634,2.714,1.686,3.63,3.154
			s1.374,3.209,1.374,5.217c0,2.108-0.506,3.873-1.517,5.293c-1.011,1.418-2.535,2.49-4.572,3.219l7.606,14.273h-6.681
			l-7.219-13.598h-0.56v13.598h-6.111L138.334,265.163L138.334,265.163z M144.446,277.713h1.915c1.943,0,3.282-0.256,4.014-0.768
			c0.732-0.51,1.099-1.356,1.099-2.539c0-0.701-0.182-1.311-0.544-1.828c-0.363-0.52-0.849-0.891-1.458-1.117
			s-1.726-0.34-3.351-0.34h-1.676v6.592H144.446z"/>
		<path fill="#438AC9" d="M174.479,272.911c2.24,0,4.349,0.56,6.317,1.681c1.974,1.12,3.512,2.641,4.617,4.563
			c1.105,1.92,1.658,3.994,1.658,6.22c0,2.241-0.557,4.336-1.67,6.286c-1.113,1.949-2.63,3.474-4.551,4.572
			c-1.92,1.099-4.037,1.647-6.352,1.647c-3.404,0-6.312-1.212-8.715-3.635c-2.411-2.422-3.615-5.365-3.615-8.828
			c0-3.71,1.36-6.802,4.083-9.276C168.638,273.988,171.379,272.911,174.479,272.911z M174.578,278.521
			c-1.852,0-3.394,0.644-4.625,1.931c-1.231,1.288-1.848,2.937-1.848,4.944c0,2.064,0.609,3.738,1.826,5.02s2.758,1.921,4.623,1.921
			s3.418-0.647,4.656-1.942c1.24-1.295,1.858-2.961,1.858-4.998s-0.608-3.691-1.825-4.965
			C178.026,279.157,176.473,278.521,174.578,278.521z"/>
		<path fill="#438AC9" d="M192.053,273.521h6.023v11.438c0,2.227,0.152,3.771,0.459,4.639c0.307,0.865,0.799,1.538,1.477,2.019
			c0.678,0.479,1.514,0.721,2.506,0.721s1.834-0.235,2.527-0.71c0.691-0.473,1.207-1.167,1.541-2.084
			c0.248-0.684,0.373-2.146,0.373-4.387v-11.635h5.959v10.063c0,4.146-0.328,6.983-0.982,8.513
			c-0.801,1.861-1.979,3.291-3.537,4.288c-1.557,0.996-3.533,1.495-5.936,1.495c-2.605,0-4.711-0.583-6.318-1.746
			c-1.607-1.164-2.74-2.785-3.395-4.867c-0.465-1.439-0.697-4.06-0.697-7.856V273.521L192.053,273.521z"/>
		<path fill="#438AC9" d="M219.752,264.77h5.959v8.752h3.535v5.131h-3.535v18.617h-5.959v-18.617h-3.057v-5.131h3.057V264.77
			L219.752,264.77z"/>
		<path fill="#438AC9" d="M234.891,263.744c1.045,0,1.941,0.379,2.689,1.135c0.748,0.757,1.121,1.674,1.121,2.75
			c0,1.063-0.369,1.969-1.109,2.719c-0.74,0.748-1.625,1.123-2.656,1.123c-1.059,0-1.961-0.382-2.709-1.146
			c-0.748-0.765-1.121-1.691-1.121-2.782c0-1.048,0.371-1.941,1.109-2.686C232.955,264.115,233.846,263.744,234.891,263.744z
			 M231.912,273.521h5.959v23.746h-5.959V273.521L231.912,273.521z"/>
		<path fill="#438AC9" d="M243.418,273.521h5.957v2.434c1.352-1.139,2.576-1.932,3.674-2.376c1.096-0.445,2.219-0.668,3.367-0.668
			c2.354,0,4.352,0.821,5.992,2.466c1.381,1.396,2.07,3.463,2.07,6.198v15.692h-5.893v-10.398c0-2.834-0.127-4.717-0.381-5.646
			c-0.254-0.931-0.697-1.639-1.328-2.125c-0.633-0.488-1.412-0.73-2.342-0.73c-1.205,0-2.238,0.402-3.104,1.21
			c-0.863,0.807-1.463,1.923-1.797,3.347c-0.174,0.741-0.262,2.348-0.262,4.816v9.527h-5.957v-23.746H243.418z"/>
		<path fill="#438AC9" d="M294.164,287.119h-19.141c0.275,1.688,1.016,3.029,2.215,4.027c1.201,0.996,2.732,1.494,4.596,1.494
			c2.227,0,4.139-0.777,5.738-2.336l5.021,2.357c-1.252,1.775-2.75,3.088-4.496,3.939c-1.746,0.851-3.82,1.276-6.221,1.276
			c-3.725,0-6.758-1.175-9.102-3.524c-2.344-2.351-3.514-5.293-3.514-8.828c0-3.623,1.168-6.633,3.502-9.025
			c2.336-2.393,5.264-3.59,8.785-3.59c3.74,0,6.781,1.195,9.123,3.59c2.344,2.395,3.514,5.555,3.514,9.482L294.164,287.119z
			 M288.207,282.427c-0.395-1.323-1.17-2.399-2.328-3.229c-1.16-0.829-2.504-1.244-4.035-1.244c-1.66,0-3.119,0.466-4.371,1.396
			c-0.787,0.582-1.516,1.607-2.188,3.077H288.207z"/>
		<path fill="#438AC9" d="M313.658,276.84l-3.688,3.688c-1.5-1.483-2.859-2.227-4.082-2.227c-0.67,0-1.193,0.143-1.572,0.426
			c-0.377,0.283-0.564,0.637-0.564,1.06c0,0.319,0.119,0.614,0.357,0.884c0.24,0.27,0.834,0.637,1.779,1.104l2.182,1.09
			c2.301,1.136,3.879,2.293,4.736,3.472c0.859,1.179,1.289,2.562,1.289,4.146c0,2.11-0.775,3.871-2.324,5.283
			c-1.551,1.41-3.627,2.116-6.23,2.116c-3.463,0-6.23-1.354-8.295-4.06l3.668-3.994c0.697,0.814,1.516,1.473,2.455,1.975
			c0.938,0.502,1.77,0.754,2.498,0.754c0.785,0,1.42-0.188,1.898-0.568c0.48-0.377,0.721-0.813,0.721-1.309
			c0-0.916-0.865-1.813-2.598-2.686l-2.008-1.004c-3.842-1.936-5.762-4.357-5.762-7.268c0-1.878,0.723-3.481,2.172-4.813
			c1.447-1.332,3.299-1.997,5.555-1.997c1.541,0,2.992,0.338,4.354,1.015C311.559,274.604,312.713,275.573,313.658,276.84z"/>
	</g>
</g>
<g>
	<path fill="#62C403" d="M219.044,54.404c40.903,27.904,53.973,83.044,28.802,126.606c-7.445,12.886-17.442,23.382-28.984,31.22
		l9.758,16.889c14.399-9.516,26.869-22.428,36.088-38.383c30.549-52.869,14.3-119.907-35.903-153.219L219.044,54.404z"/>
	<path fill="#E82202" d="M69.706,125.939c1.051-13.83,5.146-27.646,12.55-40.46c25.328-43.834,80.173-60.023,124.964-37.972
		l9.753-16.877C162.85,3.228,96.101,22.61,65.395,75.752c-9.177,15.883-14.13,33.044-15.209,50.187H69.706z"/>
	<path fill="#F8EB16" d="M207.015,219.091c-27.601,13.438-61.175,13.379-89.765-3.115c-28.663-16.536-45.514-45.664-47.598-76.353
		H50.144c2.115,37.413,22.467,73.063,57.371,93.2c34.833,20.093,75.809,19.925,109.254,3.149L207.015,219.091z"/>
</g>
<g>
	<g>
		<g>
			<g>
				<path fill="#9E9E9E" d="M166.323,43.284c-8.863,0-16.051,7.188-16.051,16.053c0,8.865,7.188,16.051,16.051,16.051
					c8.864,0,16.054-7.186,16.054-16.051C182.377,50.471,175.188,43.284,166.323,43.284z M166.323,67.599
					c-4.563,0-8.261-3.698-8.261-8.262s3.698-8.263,8.261-8.263c4.563,0,8.263,3.699,8.263,8.263S170.887,67.599,166.323,67.599z"/>
			</g>
		</g>
		<g>
			<g>
				<g>
					<path fill="#9E9E9E" d="M166.323,69.675c-37.416,0-67.749,30.332-67.749,67.75c0,37.416,30.333,67.748,67.749,67.748
						c37.417,0,67.749-30.332,67.749-67.748C234.072,100.007,203.74,69.675,166.323,69.675z M166.323,192.188
						c-30.246,0-54.765-24.521-54.765-54.763c0-30.248,24.519-54.769,54.765-54.769c30.246,0,54.765,24.521,54.765,54.769
						C221.088,167.668,196.569,192.188,166.323,192.188z"/>
				</g>
			</g>
			<g>
				<rect x="163.522" y="86.017" fill="#9E9E9E" width="5.594" height="13.882"/>
			</g>
			<g>
				<rect x="163.522" y="174.304" fill="#9E9E9E" width="5.594" height="13.882"/>
			</g>
			<g>
				<rect x="115.935" y="133.927" fill="#9E9E9E" width="13.881" height="5.591"/>
			</g>
		</g>
		<g>
			<polygon fill="#5E5E5E" points="100.026,168.23 150.238,119.702 172.669,142.614 197.142,118.333 181.792,102.983 232.62,94.197 
				224.655,145.416 209.186,129.944 172.669,165.93 150.32,143.049 111.461,180.623 			"/>
		</g>
	</g>
</g>
</svg>
