<?xml version="1.0" encoding="utf-8"?>
<!-- Generator: Adobe Illustrator 16.0.3, SVG Export Plug-In . SVG Version: 6.00 Build 0)  -->
<!DOCTYPE svg PUBLIC "-//W3C//DTD SVG 1.1//EN" "http://www.w3.org/Graphics/SVG/1.1/DTD/svg11.dtd">
<svg version="1.1" id="Layer_1" xmlns="http://www.w3.org/2000/svg" xmlns:xlink="http://www.w3.org/1999/xlink" x="0px" y="0px"
	 width="300px" height="54px" viewBox="0 0 300 54" enable-background="new 0 0 300 54" xml:space="preserve">
<g>
	<g>
		<path fill="#929190" d="M1.088,38.12l2.258-1.354c1.59,2.926,3.427,4.39,5.51,4.39c0.892,0,1.729-0.208,2.512-0.624
			c0.783-0.415,1.379-0.972,1.789-1.67c0.409-0.699,0.614-1.439,0.614-2.223c0-0.891-0.301-1.765-0.903-2.619
			c-0.831-1.182-2.349-2.603-4.553-4.264c-2.216-1.674-3.595-2.888-4.137-3.635c-0.939-1.252-1.409-2.607-1.409-4.065
			c0-1.156,0.277-2.21,0.831-3.162c0.554-0.951,1.334-1.701,2.34-2.25c1.005-0.548,2.099-0.822,3.279-0.822
			c1.253,0,2.424,0.31,3.514,0.93c1.09,0.621,2.243,1.762,3.46,3.424l-2.168,1.644c-1-1.325-1.852-2.198-2.557-2.62
			c-0.705-0.421-1.473-0.632-2.304-0.632c-1.072,0-1.948,0.325-2.628,0.976c-0.681,0.65-1.021,1.452-1.021,2.403
			c0,0.578,0.121,1.138,0.361,1.68s0.681,1.132,1.319,1.771c0.349,0.337,1.494,1.223,3.433,2.658
			c2.301,1.699,3.878,3.211,4.734,4.535c0.855,1.324,1.283,2.656,1.283,3.992c0,1.928-0.732,3.602-2.195,5.023
			c-1.463,1.421-3.243,2.131-5.339,2.131c-1.614,0-3.077-0.43-4.39-1.291S2.196,40.144,1.088,38.12z"/>
		<path fill="#929190" d="M21.052,43.07l3.805-26.579h0.432l10.804,21.809l10.7-21.809h0.426l3.825,26.579h-2.604l-2.626-19.009
			L36.416,43.07h-0.679l-9.509-19.153L23.618,43.07H21.052z"/>
		<path fill="#929190" d="M67.123,16.492L79.516,43.07h-2.869l-4.18-8.744H61.019l-4.14,8.744h-2.963l12.557-26.579H67.123z
			 M66.787,22.138l-4.554,9.622h9.086L66.787,22.138z"/>
		<path fill="#929190" d="M83.78,16.492h5.293c2.951,0,4.951,0.121,5.999,0.362c1.578,0.362,2.86,1.136,3.848,2.324
			c0.987,1.188,1.481,2.65,1.481,4.387c0,1.447-0.34,2.719-1.021,3.817c-0.68,1.101-1.653,1.929-2.917,2.49
			c-1.265,0.561-3.011,0.847-5.239,0.858l9.557,12.34h-3.286l-9.558-12.34h-1.501v12.34H83.78V16.492z M86.436,19.093v9.036
			l4.579,0.037c1.773,0,3.085-0.168,3.936-0.508c0.851-0.338,1.514-0.877,1.991-1.618s0.715-1.568,0.715-2.484
			c0-0.891-0.241-1.701-0.724-2.43c-0.482-0.729-1.116-1.249-1.9-1.563c-0.784-0.313-2.087-0.47-3.909-0.47H86.436z"/>
		<path fill="#929190" d="M103.455,19.093v-2.602h14.562v2.602h-5.926V43.07h-2.71V19.093H103.455z"/>
	</g>
	<g>
		<path fill="#438AC9" d="M123.023,10.962h6.475c3.546,0,6.071,0.316,7.576,0.949c1.504,0.633,2.714,1.685,3.63,3.154
			c0.916,1.47,1.374,3.208,1.374,5.216c0,2.11-0.506,3.874-1.517,5.293c-1.011,1.418-2.535,2.495-4.572,3.222l7.606,14.273h-6.681
			l-7.219-13.597h-0.56V43.07h-6.111V10.962z M129.134,23.512h1.915c1.943,0,3.282-0.255,4.014-0.767
			c0.732-0.511,1.099-1.357,1.099-2.54c0-0.701-0.182-1.31-0.544-1.828c-0.363-0.519-0.849-0.891-1.458-1.117
			c-0.609-0.227-1.726-0.339-3.351-0.339h-1.676V23.512z"/>
		<path fill="#438AC9" d="M159.167,18.71c2.24,0,4.347,0.56,6.318,1.681s3.511,2.641,4.616,4.562
			c1.105,1.92,1.658,3.997,1.658,6.223c0,2.24-0.557,4.336-1.669,6.285c-1.113,1.95-2.63,3.475-4.551,4.572
			c-1.921,1.099-4.038,1.648-6.352,1.648c-3.405,0-6.312-1.211-8.716-3.635c-2.408-2.422-3.612-5.365-3.612-8.828
			c0-3.711,1.36-6.804,4.081-9.278C153.324,19.788,156.067,18.71,159.167,18.71z M159.266,24.32c-1.852,0-3.393,0.644-4.625,1.931
			c-1.231,1.289-1.847,2.938-1.847,4.946c0,2.066,0.608,3.74,1.825,5.02c1.217,1.281,2.758,1.921,4.624,1.921
			c1.865,0,3.418-0.647,4.657-1.942c1.238-1.295,1.857-2.961,1.857-4.998s-0.608-3.694-1.825-4.968
			C162.715,24.956,161.16,24.32,159.266,24.32z"/>
		<path fill="#438AC9" d="M176.74,19.321h6.023v11.44c0,2.225,0.152,3.771,0.459,4.637c0.307,0.866,0.799,1.539,1.477,2.02
			c0.679,0.479,1.514,0.72,2.506,0.72s1.834-0.236,2.527-0.71c0.692-0.473,1.207-1.167,1.542-2.084
			c0.248-0.684,0.372-2.146,0.372-4.387V19.321h5.959v10.065c0,4.146-0.328,6.982-0.982,8.511c-0.801,1.862-1.979,3.292-3.536,4.289
			c-1.558,0.996-3.536,1.495-5.937,1.495c-2.604,0-4.711-0.582-6.318-1.746s-2.739-2.786-3.395-4.867
			c-0.465-1.44-0.697-4.06-0.697-7.857V19.321z"/>
		<path fill="#438AC9" d="M204.439,10.569h5.959v8.752h3.535v5.129h-3.535v18.62h-5.959v-18.62h-3.055v-5.129h3.055V10.569z"/>
		<path fill="#438AC9" d="M219.579,9.543c1.044,0,1.94,0.379,2.688,1.135s1.121,1.673,1.121,2.75c0,1.062-0.37,1.968-1.11,2.717
			s-1.625,1.124-2.654,1.124c-1.06,0-1.963-0.382-2.71-1.146c-0.747-0.764-1.12-1.691-1.12-2.783c0-1.048,0.369-1.942,1.109-2.685
			S218.534,9.543,219.579,9.543z M216.6,19.321h5.959V43.07H216.6V19.321z"/>
		<path fill="#438AC9" d="M228.105,19.321h5.958v2.434c1.351-1.139,2.575-1.931,3.673-2.376c1.096-0.445,2.219-0.668,3.367-0.668
			c2.354,0,4.352,0.822,5.993,2.466c1.38,1.397,2.07,3.463,2.07,6.198V43.07h-5.894V32.672c0-2.834-0.127-4.716-0.381-5.649
			c-0.254-0.93-0.696-1.639-1.328-2.125c-0.631-0.487-1.412-0.73-2.34-0.73c-1.205,0-2.24,0.403-3.104,1.21s-1.463,1.922-1.797,3.35
			c-0.174,0.741-0.261,2.348-0.261,4.816v9.527h-5.958V19.321z"/>
		<path fill="#438AC9" d="M278.853,32.922h-19.142c0.277,1.688,1.016,3.029,2.216,4.026s2.731,1.495,4.595,1.495
			c2.227,0,4.139-0.778,5.74-2.336l5.02,2.357c-1.252,1.775-2.75,3.088-4.496,3.939s-3.819,1.277-6.221,1.277
			c-3.725,0-6.758-1.175-9.102-3.525c-2.342-2.35-3.514-5.293-3.514-8.828c0-3.625,1.168-6.634,3.504-9.027
			c2.335-2.394,5.263-3.59,8.784-3.59c3.739,0,6.78,1.197,9.124,3.59c2.342,2.394,3.514,5.557,3.514,9.486L278.853,32.922z
			 M272.895,28.229c-0.394-1.327-1.17-2.404-2.328-3.233c-1.159-0.829-2.504-1.244-4.034-1.244c-1.661,0-3.119,0.466-4.372,1.397
			c-0.787,0.582-1.516,1.608-2.187,3.081H272.895z"/>
		<path fill="#438AC9" d="M298.346,22.639l-3.688,3.688c-1.5-1.484-2.859-2.226-4.082-2.226c-0.67,0-1.193,0.142-1.571,0.425
			s-0.567,0.637-0.567,1.059c0,0.32,0.12,0.615,0.359,0.884c0.24,0.27,0.834,0.637,1.779,1.103l2.183,1.094
			c2.299,1.135,3.878,2.291,4.736,3.47s1.288,2.562,1.288,4.147c0,2.109-0.775,3.87-2.324,5.281
			c-1.551,1.412-3.627,2.117-6.232,2.117c-3.463,0-6.228-1.354-8.293-4.06l3.666-3.994c0.699,0.815,1.518,1.474,2.455,1.976
			c0.939,0.502,1.771,0.752,2.5,0.752c0.785,0,1.418-0.188,1.898-0.566c0.48-0.379,0.721-0.815,0.721-1.311
			c0-0.916-0.866-1.811-2.598-2.684l-2.008-1.004c-3.842-1.936-5.762-4.357-5.762-7.271c0-1.877,0.723-3.481,2.172-4.813
			c1.447-1.332,3.299-1.997,5.555-1.997c1.541,0,2.993,0.338,4.354,1.015C296.247,20.402,297.4,21.373,298.346,22.639z"/>
	</g>
</g>
</svg>
