<?xml version="1.0" encoding="utf-8"?>
<!-- Generator: Adobe Illustrator 16.0.3, SVG Export Plug-In . SVG Version: 6.00 Build 0)  -->
<!DOCTYPE svg PUBLIC "-//W3C//DTD SVG 1.1//EN" "http://www.w3.org/Graphics/SVG/1.1/DTD/svg11.dtd">
<svg version="1.1" id="Layer_1" xmlns="http://www.w3.org/2000/svg" xmlns:xlink="http://www.w3.org/1999/xlink" x="0px" y="0px"
	 width="20px" height="20px" viewBox="0 0 20 20" enable-background="new 0 0 20 20" xml:space="preserve">
<g>
	<path fill="#000" d="M10,0C4.486,0,0,4.486,0,10c0,5.516,4.486,10,10,10c5.516,0,10-4.484,10-10C20,4.486,15.516,0,10,0z
		 M10,19.049c-4.989,0-9.048-4.059-9.048-9.049c0-4.989,4.059-9.047,9.048-9.047c4.988,0,9.048,4.059,9.048,9.047
		C19.048,14.99,14.988,19.049,10,19.049z"/>
	<rect x="4.706" y="7.75" fill="#000" width="10.587" height="0.953"/>
	<rect x="4.706" y="11.299" fill="#000" width="10.587" height="0.951"/>
</g>
</svg>
