<?xml version="1.0" encoding="utf-8"?>
<!-- Generator: Adobe Illustrator 16.0.3, SVG Export Plug-In . SVG Version: 6.00 Build 0)  -->
<!DOCTYPE svg PUBLIC "-//W3C//DTD SVG 1.1//EN" "http://www.w3.org/Graphics/SVG/1.1/DTD/svg11.dtd">
<svg version="1.1" id="Layer_1" xmlns="http://www.w3.org/2000/svg" xmlns:xlink="http://www.w3.org/1999/xlink" x="0px" y="0px"
	 width="93px" height="30px" viewBox="0 0 186 60" enable-background="new 0 0 186 60" xml:space="preserve">
<g>
	<g>
		<g>
			<path fill="#86B101" d="M0.424,23.348h8.233c0,0,0.302,5.043,0.571,5.043c0.342-0.404,4.077-5.952,12.575-5.952
				c8.496,0,12.49,7.945,12.49,13.458c0,5.517,0,23.079,0,23.079h-9.59c0,0,0-20.466,0-21.573c0-1.105-0.234-7.422-7.109-7.422
				c-5.562,0-7.248,5.666-7.248,6.902c0,5.523,0,22.093,0,22.093H0.424V23.348z"/>
		</g>
		<g>
			<path fill="#86B101" d="M59.723,22.438c-16.058,0-18.686,14.933-18.189,20.762c0.287,3.356,2.734,16.529,19.661,16.529
				c6.158,0,7.954-0.475,12.717-2.148c-0.384-1.157-1.31-6.509-1.31-6.509s-20.559,6.945-21.374-7.193c0,0,23.046,0,23.588,0
				c0.543,0,1.219-0.175,1.219-1.178C76.036,41.696,78.295,22.438,59.723,22.438z M51.099,37.104c0,0,1.326-8.396,8.422-8.396
				c7.506,0,7.506,8.396,7.506,8.396H51.099z"/>
		</g>
		<g>
			<path fill="#86B101" d="M78.831,23.278h10.572c0,0,7.417,12.021,7.718,12.021c0.299,0,7.398-12.021,7.398-12.021h10.008
				c0,0,0.426,0.165,0,0.703c-0.428,0.535-11.674,16.068-11.674,16.068s-0.367,0.309,0.08,1.04
				c0.451,0.727,11.781,17.297,11.781,17.297s0.348,0.527-0.295,0.527c-0.645,0-10.258,0-10.258,0s-7.615-12.557-7.881-12.557
				s-7.462,12.557-7.462,12.557h-9.988c0,0-0.407,0,0-0.705c0.519-0.895,11.806-16.756,11.806-16.756s0.378-0.768-0.153-1.462
				C89.954,39.295,78.831,23.278,78.831,23.278z"/>
		</g>
		<g>
			<path fill="#86B101" d="M122.936,22.997v-6.385l9.459-2.75v9.136h8.996v7.171h-8.814c0,0,0,16.274,0,17.312
				s0.826,4.28,3.453,4.606c2.164,0.269,4.816-0.296,4.816-0.296v7.124c0,0-2.482,1.008-7.008,1.008s-10.902-3.022-10.902-11.135
				c0-8.116,0-18.714,0-18.714h-5.311v-7.099L122.936,22.997z"/>
		</g>
	</g>
	<path fill="#040404" d="M152.236,2.825c0,0,0.332-1.028,0.17-1.419c-0.162-0.393,0.174-0.812,0.758-0.803
		c0.59,0.01,0.943,0.075,1.451,0.888s0.92,1.412,1.16,1.719c0.238,0.306,0.303,0.828,0.35,1.242c0.049,0.413,0.43,0.659,1.031,1.764
		c0.605,1.105,0.764,1.411,1,1.903c0.238,0.491,0.682,0.781,0.65,1.166c-0.033,0.385-0.061,0.599,0.543,1.32
		c0.604,0.72,0.824,0.567,1.125,1.258c0.305,0.69,0.43,0.92,0.492,1.288c0.064,0.37,0.129,0.66,0.557,0.952
		c0.432,0.292,0.508,0.598,0.855,0.598c0.352,0,0.479-0.322,0.432-0.829c-0.047-0.506,0.412-1.257,1.049-0.98
		c0.633,0.276,0.891-0.262,0.891-0.691s0.152-0.498,0.533-0.841c0.385-0.343,0.682-1.04,1.09-1.25
		c0.41-0.211,0.205-0.618,0.818-1.027c0.615-0.408,0.26-0.856,1.008-1.211c0.748-0.356,1.035-0.131,1.256-0.856
		c0.217-0.723,0.473-0.527,0.789-0.604c0.313-0.08,0.162-0.541,0.627-0.961c0.461-0.42,0.314-0.631,0.652-1.066
		c0.342-0.435,0.91-0.882,1.227-1.237c0.314-0.355,0.299-0.436,0.576-0.558c0.281-0.122,0.203-0.439,0.609-0.781
		c0.404-0.343,0.553-0.147,1.109-0.586c0.557-0.44,0-0.44,0.988-0.757c0.986-0.317,1.566-0.171,2.02-0.416
		c0.455-0.245,0.535-0.17,1.064,0.562c0.533,0.732,1.553,1.501,0.533,1.978c-1.207,0.565-3.316,1.734-4.148,2.834
		c-0.834,1.099-3.627,3.025-4.088,3.868c-0.467,0.842-1.342,1.011-1.631,1.236c-0.293,0.226-1.166,1.631-1.395,2.39
		c-0.234,0.758-1.168,1.492-2.156,1.786c-0.99,0.294-0.555,0.968-0.785,1.446c-0.23,0.479-1.773,1.096-1.773,1.688
		c0,0.589-0.176,0.703,0.727,1.067c0.9,0.365,0.947,1.236,1.082,1.738c0.139,0.505,0.428,1.57,0.967,2.124
		c0.537,0.554,0.957,1.546,1.166,2.167c0.209,0.622,0.885,0.757,1.668,1.462c0.781,0.705,0.557,1.344,1.063,2.368
		c0.498,1.025,4.031,4.536,5.373,5.677c1.336,1.142,1.215,1.177,1.648,1.412c0.438,0.236,0.924,1.057,1.08,1.293
		c0.156,0.232,0.242,0.504,1.252,0.621c1.01,0.118,1.91,0.344,2.576,0.563c0.662,0.218,2.467,0.332,3.094,0.681
		c0.623,0.345,0.783,0.923,0.488,1.346c-0.289,0.421-1.484,0.281-2.096,0.333c-0.609,0.05-0.748,0.103-1.105,0.49
		c-0.361,0.386-1.506,0.091-2.865-0.838c-1.361-0.927-1.693-1.943-3.094-2.059c-1.4-0.117-1.84-0.656-3.436-2.396
		c-1.604-1.737-2.922-3.205-3.721-4.441c-0.801-1.236-1.119-0.81-1.762-2.239c-0.639-1.431-1.676-2.512-2.197-3.746
		c-0.521-1.237-1.594-2.75-2.191-3.602c-0.604-0.849-1.248-1.313-1.885-1.25c-0.641,0.062-0.48,0.797-1.322,0.681
		c-0.518,0.039-0.758,0.645-0.922,1.153c-0.154,0.508-2.391,3.337-3.098,4.156c-0.699,0.82-0.779,1.502-1.672,2.186
		c-0.889,0.683-1.047,1.316-1.307,2.101c-0.262,0.784-0.736,0.731-1.256,1.039c-0.525,0.302-0.76,0.756-0.813,1.719
		c-0.055,0.962-0.844,1.723-1.916,2.504c-1.072,0.785-1.439,2.229-2.988,3.518c-1.543,1.29-2.854,4.049-3.48,5.014
		c-0.629,0.96-1.811,1.846-2.438,2.402s-1.313,0.709-0.918-0.505c0.393-1.216,1.498-0.861,1.68-2.278
		c0.184-1.418,0.996-1.063,1.279-1.595c0.289-0.53,0.449-1.417,0.918-2.227c0.473-0.809,1.18-0.861,1.729-1.847
		c0.553-0.988,0.998-1.24,1.023-2c0.025-0.759-0.367-1.416,0.262-1.568c0.631-0.152,1.123,0.025,1.316-0.506
		c0.189-0.533,0.451-1.627,0.902-1.967c0.445-0.34,0.027-0.9,0.223-1.334c0.191-0.433,0.768-0.65,1.473-0.99
		c0.709-0.342,1.027-0.526,1.156-1.488s0.867-1.362,1.092-1.487c0.227-0.124,0.096-0.464,0.543-1.179
		c0.449-0.712,1.031-0.674,1.297-1.031c0.273-0.356,0.117-1.477,0.439-1.931c0.32-0.454,0.891-0.454,1.227-0.617
		c0.336-0.163-0.234-0.908,0.135-1.313c0.369-0.408,0.43-0.239,0.479-0.495c0.049-0.255-0.299-1.038,0.645-0.991
		c0.943,0.048,0.727-0.606,0.975-1.214c0.25-0.607,0.646-0.813,1.059-0.863c0.414-0.048,1.096,0.145,1.01-0.463
		c-0.082-0.607-0.324-1.665-0.785-1.994c-0.465-0.328-0.705-1.362-0.828-1.831c-0.121-0.469-0.898-0.492-1.557-1.878
		c-0.654-1.386-2.018-3.475-2.283-4.438c-0.268-0.961-0.508-1.455-1.023-2.134c-0.506-0.683-0.703-1.363-1.094-1.503
		C152.281,3.269,152.184,3,152.236,2.825z"/>
	<g>
		<g>
			<path fill="#040404" d="M161.648,58.476v-6.566h-2.541v-0.881h6.111v0.881h-2.551v6.566H161.648z"/>
			<path fill="#040404" d="M166.236,58.476v-7.447h1.535l1.828,5.275c0.166,0.49,0.289,0.856,0.369,1.102
				c0.086-0.27,0.225-0.67,0.41-1.195l1.846-5.182h1.373v7.447h-0.984v-6.232l-2.244,6.232h-0.918l-2.232-6.34v6.34H166.236z"/>
		</g>
	</g>
</g>
</svg>
