<?xml version="1.0" encoding="utf-8"?>
<!-- Generator: Adobe Illustrator 16.0.3, SVG Export Plug-In . SVG Version: 6.00 Build 0)  -->
<!DOCTYPE svg PUBLIC "-//W3C//DTD SVG 1.1//EN" "http://www.w3.org/Graphics/SVG/1.1/DTD/svg11.dtd">
<svg version="1.1" id="Layer_1" xmlns="http://www.w3.org/2000/svg" xmlns:xlink="http://www.w3.org/1999/xlink" x="0px" y="0px"
	 width="48px" height="48px" viewBox="0 0 48 48" enable-background="new 0 0 48 48" xml:space="preserve">
<g>
	<path fill="#231F20" d="M18.884,17.27l-1.36,6.372l5.831-2.896C22.482,18.993,20.85,17.687,18.884,17.27z"/>
	<path fill="#231F20" d="M16.056,25.477l1.36-6.372c-0.439-0.093-0.893-0.145-1.36-0.145c-3.598,0-6.517,2.917-6.517,6.517
		c0,3.599,2.918,6.516,6.517,6.516c3.599,0,6.517-2.917,6.517-6.516c0-1.042-0.251-2.023-0.686-2.896L16.056,25.477z"/>
	<path fill="#231F20" d="M33.598,18.91H27.37c-0.404,0-0.732,0.328-0.732,0.733s0.328,0.733,0.732,0.733h6.228
		c0.405,0,0.734-0.328,0.734-0.733S34.003,18.91,33.598,18.91z"/>
	<path fill="#231F20" d="M33.598,23.928H27.37c-0.404,0-0.732,0.328-0.732,0.733s0.328,0.734,0.732,0.734h6.228
		c0.405,0,0.734-0.329,0.734-0.734S34.003,23.928,33.598,23.928z"/>
	<path fill="#231F20" d="M33.598,28.945H27.37c-0.404,0-0.732,0.328-0.732,0.733s0.328,0.734,0.732,0.734h6.228
		c0.405,0,0.734-0.329,0.734-0.734S34.003,28.945,33.598,28.945z"/>
	<path fill="#231F20" d="M43.07,15.863c-0.027-0.386-0.351-0.683-0.732-0.683c-0.018,0-0.034,0.001-0.052,0.002l-2.736,0.191v-4.177
		c0-0.403-0.331-0.733-0.735-0.733h-3.166l0.234-3.355c0.029-0.402-0.278-0.756-0.68-0.782L10.826,4.62
		c-0.017,0-0.035-0.001-0.052-0.001c-0.38,0-0.705,0.297-0.731,0.683l-0.361,5.162H4.353c-0.404,0-0.734,0.33-0.734,0.733v26.771
		c0,0.403,0.33,0.733,0.734,0.733h5.631l0.367,5.234c0.027,0.386,0.35,0.683,0.732,0.683c0.017,0,0.034-0.001,0.051-0.003
		l33.048-2.311c0.403-0.027,0.709-0.381,0.681-0.783L43.07,15.863z M12.136,6.919l21.45,1.5l-0.142,2.045H11.888L12.136,6.919z
		 M5.82,12.665h31.528v23.836H5.82V12.665z M12.445,42.318l-0.253-3.616h26.623c0.404,0,0.735-0.33,0.735-0.733V17.581l1.426-0.1
		l1.589,22.73L12.445,42.318z"/>
</g>
</svg>
