<?xml version="1.0" encoding="utf-8"?>
<!-- Generator: Adobe Illustrator 16.0.3, SVG Export Plug-In . SVG Version: 6.00 Build 0)  -->
<!DOCTYPE svg PUBLIC "-//W3C//DTD SVG 1.1//EN" "http://www.w3.org/Graphics/SVG/1.1/DTD/svg11.dtd">
<svg version="1.1" id="Layer_1" xmlns="http://www.w3.org/2000/svg" xmlns:xlink="http://www.w3.org/1999/xlink" x="0px" y="0px"
	 width="64px" height="64px" viewBox="0 0 64 64" enable-background="new 0 0 64 64" xml:space="preserve">
<g>
	<path fill="#231F20" d="M32,7.655c0.688,0,1.378,0.454,1.899,1.361l25.082,43.531c1.045,1.813,0.188,3.297-1.904,3.297H6.924
		c-2.092,0-2.949-1.483-1.904-3.297L30.102,9.016C30.623,8.109,31.313,7.655,32,7.655 M32,3.089c-2.387,0-4.52,1.33-5.855,3.647
		L1.063,50.267c-1.334,2.315-1.415,4.828-0.221,6.894c1.193,2.065,3.41,3.25,6.082,3.25h50.153c2.672,0,4.889-1.185,6.082-3.25
		s1.113-4.578-0.221-6.894L37.856,6.736C36.521,4.418,34.386,3.089,32,3.089L32,3.089z"/>
	<path fill="#231F20" d="M40.831,29.769c-0.365-0.366-0.965-0.366-1.33,0L27.908,41.362c-0.367,0.366-0.965,0.366-1.33,0
		l-5.15-5.149c-0.365-0.366-0.965-0.366-1.33,0l-2.297,2.298c-0.367,0.365-0.367,0.963,0,1.329l5.15,5.15
		c0.365,0.365,0.963,0.963,1.328,1.329l2.299,2.298c0.365,0.366,0.963,0.366,1.33,0l2.297-2.298c0.365-0.366,0.963-0.964,1.33-1.329
		l11.593-11.595c0.367-0.365,0.367-0.964,0-1.329L40.831,29.769z"/>
</g>
<g id="Alert">
</g>
</svg>
