<?xml version="1.0" encoding="utf-8"?>
<!-- Generator: Adobe Illustrator 16.0.3, SVG Export Plug-In . SVG Version: 6.00 Build 0)  -->
<!DOCTYPE svg PUBLIC "-//W3C//DTD SVG 1.1//EN" "http://www.w3.org/Graphics/SVG/1.1/DTD/svg11.dtd">
<svg version="1.1" id="Layer_1" xmlns="http://www.w3.org/2000/svg" xmlns:xlink="http://www.w3.org/1999/xlink" x="0px" y="0px"
	 width="64px" height="64px" viewBox="0 0 64 64" enable-background="new 0 0 64 64" xml:space="preserve">
<path fill="#231F20" d="M62.938,50.267L37.856,6.736C36.521,4.418,34.386,3.089,32,3.089c-2.387,0-4.52,1.33-5.855,3.647
	L1.063,50.267c-1.334,2.315-1.415,4.828-0.221,6.894c1.193,2.065,3.41,3.25,6.082,3.25h50.153c2.672,0,4.889-1.185,6.082-3.25
	S64.272,52.582,62.938,50.267z M43.128,33.396L31.535,44.99c-0.367,0.365-0.965,0.963-1.33,1.329l-2.297,2.298
	c-0.367,0.366-0.965,0.366-1.33,0l-2.299-2.298c-0.365-0.366-0.963-0.964-1.328-1.329l-5.15-5.15c-0.367-0.366-0.367-0.964,0-1.329
	l2.297-2.298c0.365-0.366,0.965-0.366,1.33,0l5.15,5.149c0.365,0.366,0.963,0.366,1.33,0l11.593-11.593
	c0.365-0.366,0.965-0.366,1.33,0l2.297,2.297C43.495,32.432,43.495,33.03,43.128,33.396z"/>
<g id="Alert">
</g>
</svg>
