<?xml version="1.0" encoding="utf-8"?>
<!-- Generator: Adobe Illustrator 16.0.3, SVG Export Plug-In . SVG Version: 6.00 Build 0)  -->
<!DOCTYPE svg PUBLIC "-//W3C//DTD SVG 1.1//EN" "http://www.w3.org/Graphics/SVG/1.1/DTD/svg11.dtd">
<svg version="1.1" id="Layer_1" xmlns="http://www.w3.org/2000/svg" xmlns:xlink="http://www.w3.org/1999/xlink" x="0px" y="0px"
	 width="64px" height="64px" viewBox="0 0 64 64" enable-background="new 0 0 64 64" xml:space="preserve">
<g>
	<path fill="#F6A93D" d="M31.271,42.075c0,0,0.5-6.053,0.5-8.345c0-2.291-0.286-4.459-2.646-8.391
		c-2.358-3.932-5.29-5.083-7.902-5.083s-5.201,1.62-7.165,4.338c-1.941,2.686-2.278,8.903-2.278,10.408
		c0,1.506,0.062,4.817,2.054,8.747c1.993,3.93,4.804,9.044,4.804,9.044l13.685-3.257C32.321,49.537,31.047,46,31.271,42.075z
		 M19.603,50.624c-0.956-1.761-2.724-5.042-4.087-7.728c-1.85-3.647-1.85-6.732-1.85-7.894c0-2.082,0.484-7.314,1.921-9.303
		c1.634-2.26,3.688-3.556,5.636-3.556c2.546,0,4.602,1.363,6.284,4.167c2.198,3.662,2.376,5.527,2.376,7.42
		c0,2.188-0.488,8.13-0.493,8.189l-0.002,0.024l-0.001,0.023c-0.139,2.401,0.23,4.652,0.587,6.188L19.603,50.624z"/>
	<path fill="#F6A93D" d="M19.149,54.521c0.088,0.22,1.061,4.565,3.262,6.882c1.047,1.104,2.658,1.537,4.55,1.537
		c0.001,0,0.003,0,0.004,0c0.054,0,0.106,0.001,0.159,0.001c5.235,0,7.603-3.637,7.655-6.496c0.054-2.885-2.155-5.389-2.155-5.389
		L19.149,54.521z M27.124,61.053l-0.163-0.001c-1.514,0-2.584-0.319-3.182-0.948c-0.61-0.644-1.454-1.884-2.256-4.244l10.328-2.657
		c0.505,0.827,1.062,2.037,1.041,3.208C32.858,58.276,31.293,61.053,27.124,61.053z"/>
	<path fill="#F6A93D" d="M51.247,12.856c-1.488-4.06-3.023-7.036-5.117-9.079c-1.866-1.821-4.53-2.763-6.734-2.832
		c-0.081-0.002-0.162-0.004-0.241-0.004c-2.119,0.001-4.148,0.884-5.8,2.886c-1.713,2.078-2.415,5.28-2.498,8.987
		c-0.085,3.707,1.744,7.082,3.729,11.116c2.411,4.481,2.262,8.771,2.262,8.771l14.005-1.84c0,0,0.299-1.955,0.832-6.111
		S52.817,17.146,51.247,12.856z M49.917,23.699l-0.104,0.81c-0.271,2.116-0.483,3.664-0.625,4.667l-10.582,1.391
		c-0.221-1.848-0.807-4.636-2.343-7.502l-0.434-0.877c-1.762-3.558-3.153-6.368-3.086-9.331c0.082-3.629,0.778-6.263,2.067-7.829
		c1.204-1.459,2.664-2.199,4.344-2.199c0.061,0,0.121,0.001,0.182,0.003c1.959,0.061,4.109,0.963,5.476,2.296
		c1.716,1.675,3.154,4.258,4.662,8.377C50.783,17.079,50.401,20,49.917,23.699z"/>
	<path fill="#F6A93D" d="M37.158,34.191c0,0-0.663,1.962-0.536,3.439c0.128,1.478,0.357,3.108,1.835,4.408s3.006,2.011,4.969,2.011
		c2.674,0,6.271-1.632,7.162-4.107c0.878-2.436,0.403-7.241,0.403-7.241L37.158,34.191z M48.813,39.302
		c-0.52,1.443-3.188,2.86-5.387,2.86c-1.382,0-2.495-0.46-3.723-1.541c-0.85-0.747-1.071-1.647-1.201-3.152
		c-0.036-0.428,0.038-1.004,0.147-1.54l10.573-1.139C49.263,36.407,49.182,38.279,48.813,39.302z"/>
</g>
</svg>
