<?xml version="1.0" encoding="utf-8"?>
<!-- Generator: Adobe Illustrator 16.0.3, SVG Export Plug-In . SVG Version: 6.00 Build 0)  -->
<!DOCTYPE svg PUBLIC "-//W3C//DTD SVG 1.1//EN" "http://www.w3.org/Graphics/SVG/1.1/DTD/svg11.dtd">
<svg version="1.1" id="Layer_1" xmlns="http://www.w3.org/2000/svg" xmlns:xlink="http://www.w3.org/1999/xlink" x="0px" y="0px"
	 width="64px" height="64px" viewBox="0 0 64 64" enable-background="new 0 0 64 64" xml:space="preserve">
<g>
	<path fill="#F6A93D" d="M61.688,55.457L33.796,6.265c-0.361-0.638-1.046-1.068-1.832-1.068s-1.472,0.43-1.834,1.068L2.237,55.456
		c-0.357,0.63-0.379,1.429,0.013,2.1c0.391,0.671,1.097,1.046,1.821,1.046h55.785c0.725,0,1.429-0.375,1.819-1.046
		C62.067,56.885,62.047,56.087,61.688,55.457z M8.074,53.786l23.89-42.821l23.889,42.821L8.074,53.786z"/>
	<path fill="#F6A93D" d="M28.753,25.143c0,0.975,0.073,2.618,0.218,4.883l0.45,7.906c0.142,1.447,0.376,2.542,0.697,3.238
		c0.279,0.606,1.105,0.878,1.8,0.878c0.67,0,1.485-0.286,1.798-0.924c0.349-0.713,0.582-1.774,0.693-3.152l0.597-8.243
		c0.113-1.106,0.17-2.193,0.17-3.244c0-1.823-0.086-3.129-0.517-4.012c-0.38-0.781-1.35-1.229-2.659-1.229
		c-1.05,0-1.868,0.33-2.504,1.009C28.879,22.913,28.753,23.886,28.753,25.143z"/>
	<path fill="#F6A93D" d="M31.942,45.539c-0.863,0-1.594,0.299-2.191,0.896c-0.597,0.597-0.895,1.32-0.895,2.171
		c0,0.974,0.312,1.732,0.936,2.274c0.624,0.542,1.354,0.813,2.192,0.813c0.822,0,1.543-0.274,2.16-0.823
		c0.618-0.549,0.926-1.303,0.926-2.264c0-0.851-0.305-1.574-0.915-2.171C33.544,45.837,32.807,45.539,31.942,45.539z"/>
</g>
</svg>
