<?xml version="1.0" encoding="utf-8"?>
<!-- Generator: Adobe Illustrator 16.0.3, SVG Export Plug-In . SVG Version: 6.00 Build 0)  -->
<!DOCTYPE svg PUBLIC "-//W3C//DTD SVG 1.1//EN" "http://www.w3.org/Graphics/SVG/1.1/DTD/svg11.dtd">
<svg version="1.1" id="Layer_1" xmlns="http://www.w3.org/2000/svg" xmlns:xlink="http://www.w3.org/1999/xlink" x="0px" y="0px"
	 width="64px" height="64px" viewBox="0 0 64 64" enable-background="new 0 0 64 64" xml:space="preserve">
<path fill="#F6A93D" d="M40.558,6.758c-0.414-0.142-4.405-1.039-5.888,3.009c-1.2,3.276,0.763,5.418,2.375,7.792
	c0,0,5.4,6.369,6.354,7.579c0.955,1.209,5.297,6.703,6.353,10.036c1.057,3.333,1.057,5.366,1.057,7.032
	c0,1.667-0.856,13.866-13.789,17.699c0,0,9.048-5.604,4.27-17.526c0,0-1.505,5.542-8.915,4.657c0.385-0.384,4.111-2.996,3.812-9.428
	s-5.767-9.233-7.666-9.267c0.533,0.634,1.475,2.492,1.475,4.592c0,0,0.577,3.928-3.967,7.754c-3.095,2.607-5.341,5.786-5.474,9.219
	c-0.133,3.434,0.733,8.001,5.933,10.634c-0.7-0.135-9.966-0.968-12.766-11.567c-1.2-4.466-0.289-8.583,2.045-12.705
	c2.333-4.122,3.909-5.091,3.576-7.485c-0.333-2.395-1.758-4.394-4.758-4.728c0.697-0.697,5.092-3.848,9.941-0.393
	c-0.425-0.516-2.062-3.395-2.183-7.122c-0.121-3.728,1.424-8.304,4.849-10.456S36.377,3.915,40.558,6.758z"/>
</svg>
