<?xml version="1.0" encoding="utf-8"?>
<!-- Generator: Adobe Illustrator 16.0.3, SVG Export Plug-In . SVG Version: 6.00 Build 0)  -->
<!DOCTYPE svg PUBLIC "-//W3C//DTD SVG 1.1//EN" "http://www.w3.org/Graphics/SVG/1.1/DTD/svg11.dtd">
<svg version="1.1" id="Layer_1" xmlns="http://www.w3.org/2000/svg" xmlns:xlink="http://www.w3.org/1999/xlink" x="0px" y="0px"
	 width="44px" height="44px" viewBox="0 0 44 44" enable-background="new 0 0 44 44" xml:space="preserve">
<g>
	<path d="M24.496,21.955l9.185-9.267L21.947,1h-1.632v16.998L10.135,7.727l-2.379,2.357l11.827,11.935L7.756,33.953l2.379,2.357
		l10.18-10.272V43h1.63l11.736-11.777L24.496,21.955z M23.445,6.894l5.741,5.793l-5.741,5.792V6.894z M23.445,25.433l5.741,5.791
		l-5.741,5.791V25.433z"/>
	<rect x="4.332" y="19.419" transform="matrix(0.7071 0.7071 -0.7071 0.7071 17.581 1.5557)" width="5.161" height="5.161"/>
	<rect x="34.507" y="19.419" transform="matrix(0.7071 0.7071 -0.7071 0.7071 26.419 -19.7811)" width="5.161" height="5.161"/>
</g>
</svg>
